<svg xmlns="http://www.w3.org/2000/svg" width="70" height="70" viewBox="0 0 70 70">
  <defs>
    <style>
      .cls-1 {
        fill: none;
      }

      .cls-2 {
        fill: #fff;
      }

      .cls-3 {
        fill: #009247;
      }

      .cls-4 {
        fill: #a62720;
      }

      .cls-5 {
        fill: #38875a;
      }
    </style>
  </defs>
  <g id="il_samie_1" transform="translate(0.266 0.38)">
    <rect id="Rectangle_4066" data-name="Rectangle 4066" class="cls-1" width="70" height="70" transform="translate(-0.266 -0.38)"/>
    <g id="Group_22852" data-name="Group 22852" transform="translate(2.326 1.93)">
      <path id="Path_60511" data-name="Path 60511" class="cls-2" d="M418.965,714.237h0l-15.7.063-.415-6.136.725-1.007,6.607-.524,1.853-.081,3.666-1.773,3.183-1.41,1.33,7.856Z" transform="translate(-384.273 -648.863)"/>
      <path id="Path_60512" data-name="Path 60512" class="cls-3" d="M323.142,439.467c-1.159-2.577-2.761-4.644-5.681-5.431-1.69-.455-3.208-1.519-5.042-1.5-5.176.063-9.022,2.42-11.433,7.346a113.045,113.045,0,0,0-4.117,10.676,7.506,7.506,0,0,1-2.5,3.157,61,61,0,0,1-5.646,3.821c-2.492,1.639-2.843,5.807-.8,7.949,4.786,5.029,11.236,4.4,16.279.255.484-.4.945-.926,1.553-.433s1.258,1.031,1.131,1.974c-.005.039-.042.078-.037.114.548,3.694-2.067,5.682-4.182,8.022a17.63,17.63,0,0,0-4.432,8.145c-.737,3.482.1,5.134,3.016,7.308a5.794,5.794,0,0,0,1.9,1.015c.976.269.813,1.214.882,1.9a21.468,21.468,0,0,1,.019,3.378c-.062,1.065.668.748,1.205.788s1.009.076.974-.764a18.961,18.961,0,0,0-.494-4.305c-.221-1.389-.008-1.691,1.411-1.419a22.826,22.826,0,0,0,4.431.194,14.666,14.666,0,0,0,7.222-2.34,2.246,2.246,0,0,0,.5-.521c.669-.8.673-.165.728.34.273,2.52.527,5.041.832,7.557.051.42-.207,1.121.43,1.212a8.545,8.545,0,0,0,2.39-.061c.3-.042.127-.476.085-.744-.3-1.89-.586-3.78-.886-5.67-.154-.966.175-1.092,1.133-.961a62.1,62.1,0,0,0,8.822.885,5.093,5.093,0,0,0,3.975-1.95c.759-.889.2-2.852-1.194-3.882a31.974,31.974,0,0,0-3.838-2.463c-1.528-.82-2.829-1.675-3.328-3.534a6.736,6.736,0,0,0-2.093-3.324c-1.212-1.059-1.909-1.166-2.979,0-.775.843-1.38.982-2.1.027a.9.9,0,0,0-.476-.354c-1.962-.354-2.54-2.18-3.664-3.42a.893.893,0,0,1-.153-.326c-.146-.45-.449-1.017-.191-1.356.284-.373.893-.13,1.37-.082a25.355,25.355,0,0,0,10.018-.657c4.781-1.458,9.259-3.456,12.953-7.01a14.053,14.053,0,0,0,4.724-8.911,8.8,8.8,0,0,0-.675-5.031,6.174,6.174,0,0,1-.5-2.1,1.969,1.969,0,0,0-2.59-1.931,7.927,7.927,0,0,0-2.993.8c-.558.376-.684-.164-.676-.583a3.148,3.148,0,0,0-.522-1.945c-1.454-1.8-1.9-1.92-3.986-1.143-1.236.461-2.444,1.012-3.686,1.431a11.026,11.026,0,0,1-4.407.121c-.621-.049-.885-.738-1.1-1.321A10.719,10.719,0,0,0,323.142,439.467Z" transform="translate(-286.595 -432.538)"/>
      <path id="Path_60513" data-name="Path 60513" class="cls-3" d="M262.939,661.86a8.652,8.652,0,0,0-1.011.006,1.345,1.345,0,0,0-1.248,1.125,1.183,1.183,0,0,0,.967,1.334c1.577.469,3.248.305,4.845.731,1.421.379,2.888.587,4.337.858a6.632,6.632,0,0,0,1.186.135c1.286,0,1.9-.475,1.918-1.459a1.738,1.738,0,0,0-1.882-1.737,36.288,36.288,0,0,1-3.681-.443C266.512,662.16,264.638,662.027,262.939,661.86Z" transform="translate(-209.371 -615.698)"/>
      <path id="Path_60514" data-name="Path 60514" class="cls-3" d="M283.358,625.7a3.754,3.754,0,0,0-2.191.54,23.261,23.261,0,0,1-6.195,2.151c-.924.254-1.985.467-2.2,1.731a1.718,1.718,0,0,0,.573,1.726c.51.442.993.129,1.44-.124,2.176-1.231,4.584-2.03,6.534-3.695a11.573,11.573,0,0,1,2.368-1.139c.368-.186.672-.5.506-.97C284.035,625.474,283.65,625.715,283.358,625.7Z" transform="translate(-222.103 -586.783)"/>
      <path id="Path_60515" data-name="Path 60515" class="cls-3" d="M289.927,603.74a1.153,1.153,0,0,0,.55,1.13.9.9,0,0,0,1.2-.246c1.638-1.9,3.885-3.1,5.616-4.881.6-.621,1.48-.828,2.013-1.507.217-.276.547-.577.313-.95-.27-.43-.652-.161-.957.006a70.287,70.287,0,0,0-8.022,4.99A1.744,1.744,0,0,0,289.927,603.74Z" transform="translate(-241.025 -563.944)"/>
      <path id="Path_60516" data-name="Path 60516" class="cls-2" d="M415.043,627.706c3.288-.261,6.618-.432,9.445-2.434a9.485,9.485,0,0,0,4.232-7.377,2.882,2.882,0,0,0-.362-1.629,1.653,1.653,0,0,0-1.643-1.019c-.748.085-1.07.686-1.2,1.341-.177.866-.3,1.747-.4,2.626a3.5,3.5,0,0,1-1.314,2.5c-2.869,2.134-5.966,3.344-9.586,2.1a4.353,4.353,0,0,1-2.827-3.343c-.133-.522-.114-1.131.527-1.309.668-.186.886.394,1.088.881.96,2.308,2.262,3.076,4.758,2.818a10.332,10.332,0,0,0,5.025-2.215c1.118-.819,1.184-2.155,1.193-3.41a4,4,0,0,1,.933-3.018c.523-.538.075-.955-.3-1.329a16.634,16.634,0,0,1-3.038-4.041c-.131-.248-.349-.509-.343-.76.035-1.572-1.084-2.1-2.259-2.6q-1.167-.5-2.326-1.012c-.539-.241-.742-.034-.734.509.006.362-.042.729-.005,1.087.288,2.8-.972,4.885-2.979,6.657a24.139,24.139,0,0,0-4.383,5.114,8.245,8.245,0,0,0-1.175,2.89c-.661,3.375.837,5.768,4.205,6.556A10.69,10.69,0,0,0,415.043,627.706Z" transform="translate(-393.66 -569.796)"/>
      <path id="Path_60517" data-name="Path 60517" class="cls-2" d="M341.708,656.565c.212-.764.358-1.85,1.4-1.865.94-.013,1.07,1,1.26,1.7a9.142,9.142,0,0,0,5.161,6.156,8.163,8.163,0,0,1,3.238,2.248,1.644,1.644,0,0,1,.14.467c.154.8-.258,1.331-1.208,1.464a8.1,8.1,0,0,1-5.656-1.148c-1.726-1.13-3.432-2.416-3.89-4.666A6.263,6.263,0,0,1,341.708,656.565Z" transform="translate(-304.648 -609.989)"/>
      <path id="Path_60518" data-name="Path 60518" class="cls-2" d="M397.232,693.589c.372.034.457-.219.186-.645a9.43,9.43,0,0,0-.844-1.166c-.273-.31-.382-1.075-.806-.869a2.072,2.072,0,0,0-.91,1.618c-.085.669.574.65,1.01.774C396.252,693.409,396.65,693.469,397.232,693.589Z" transform="translate(-360.021 -638.883)"/>
      <path id="Path_60519" data-name="Path 60519" class="cls-4" d="M303.375,498.928c.736-.288,1.458-1.2,2.331-.229h0l.241.258h0a1.23,1.23,0,0,1-.371,1.861c-.811.6-1.659,1.2-2.737.653a1.106,1.106,0,0,1-.562-1A1.5,1.5,0,0,1,303.375,498.928Z" transform="translate(-250.038 -485.037)"/>
      <path id="Path_60520" data-name="Path 60520" class="cls-2" d="M297.375,449.1A18.739,18.739,0,0,1,299.4,445a8.972,8.972,0,0,1,4.222-2.858A12.447,12.447,0,0,1,313.9,443.5c.32.348.664.665.968,1.038a25.426,25.426,0,0,1,3.623,6.755c.834,2.052,1.815,4.177,3.753,5.343,3.162,1.9,6.544,2.376,9.938.393.306-.179.6-.517.979-.319,1.941,1.011,3.736.357,5.614-.544.318,2.319.639,4.53-.18,6.725h0a11.74,11.74,0,0,1-2.7,5.559c-2.119,2.552-5.055,3.938-7.919,5.377-4.575,2.3-9.572,2.31-14.5,2.185a20.5,20.5,0,0,1-10.591-3.654c-1.3-.842-1.53-1.484-1.038-2.915a5.745,5.745,0,0,0,.421-1.628c.08-2.707.834-5.319,1.088-8a13.482,13.482,0,0,1,.345-3.579h0a9.185,9.185,0,0,1,.258-2.384,3.679,3.679,0,0,0-3.62-4.08,22.3,22.3,0,0,0-2.412.065C297.277,449.889,297.141,449.716,297.375,449.1Z" transform="translate(-281.924 -439.749)"/>
      <path id="Path_60521" data-name="Path 60521" class="cls-3" d="M384.868,542.63a3.239,3.239,0,0,1,4.2-2.139c2.363.727,3.334,2.652,4.252,4.632,1.695,3.66,4.2,6.25,8.572,6.616a1.035,1.035,0,0,1-1.238.573,11.8,11.8,0,0,0-3.219.246,18.274,18.274,0,0,1-6.471-.148C385.452,551.333,383.708,546.708,384.868,542.63Z" transform="translate(-362.262 -518.631)"/>
      <path id="Path_60522" data-name="Path 60522" class="cls-2" d="M416.777,551.03c-.5,2.325-.617,4.593,1.368,6.353a7.486,7.486,0,0,0,4.238,1.565,12.905,12.905,0,0,0,2.654.038c-2.519-2.238-3.671-5.366-5.617-7.939C418.4,549.821,417.478,549.816,416.777,551.03Z" transform="translate(-391.832 -526.459)"/>
      <path id="Path_60523" data-name="Path 60523" class="cls-5" d="M427.982,500.84c.084.553.13,1.115.265,1.655a.7.7,0,0,0,.834.531.747.747,0,0,0,.633-.64c.413-1.8-1.559-4.274-3.365-4.221-1.755.051-3.405,2.729-2.654,4.316a.827.827,0,0,0,.726.551.678.678,0,0,0,.708-.54c.111-.381.157-.782.231-1.174.117-.64.3-1.259,1.027-1.43C427.2,499.7,427.63,500.219,427.982,500.84Z" transform="translate(-397.981 -484.956)"/>
    </g>
  </g>
</svg>
